<?xml version="1.0" encoding="utf-8"?>
<!-- Generator: Adobe Illustrator 22.1.0, SVG Export Plug-In . SVG Version: 6.00 Build 0)  -->
<svg version="1.1" id="m_smash" xmlns="http://www.w3.org/2000/svg" xmlns:xlink="http://www.w3.org/1999/xlink" x="0px" y="0px"
	 viewBox="0 0 1000 1000" enable-background="new 0 0 1000 1000" xml:space="preserve">
<path fill="#7E7E7E" d="M295.4,623.4h-96c21.5,47.7,54.5,89.4,96,121.3V623.4 M295.4,255.2C220.9,312.9,173.1,401.1,173.1,500
	c0,20.7,2.1,41.4,6.4,61.7h115.9V255.2 M497.3,185.1c-13.5,0-27,0.9-40.4,2.5v374.1h363.5c4.2-20.3,6.4-41,6.4-61.7
	C826.9,326.1,679.3,185.1,497.3,185.1 M800.6,623.4H457v189c13.4,1.6,26.9,2.4,40.4,2.5C633.5,814.9,750.3,736,800.6,623.4"/>
</svg>
